<svg width="59" height="58" viewBox="0 0 59 58" fill="none" xmlns="http://www.w3.org/2000/svg">
<path d="M55.6023 42.4282C55.3727 41.6653 54.274 41.1274 54.274 41.1274C54.1701 41.0725 54.0772 41.0231 54.0007 40.9847C52.1695 40.0956 50.546 39.0254 49.1794 37.8125C48.0807 36.8355 47.1405 35.7598 46.3862 34.6183C45.4624 33.2242 45.0305 32.0607 44.8447 31.4295C44.7408 31.0179 44.7572 30.8533 44.8447 30.6392C44.9157 30.4581 45.1289 30.288 45.2273 30.2056C45.845 29.7666 46.8399 29.119 47.4521 28.7238C47.9823 28.378 48.436 28.0817 48.7039 27.8951C49.5621 27.2913 50.1524 26.6766 50.4968 26.0126C50.945 25.1564 50.9997 24.2124 50.6499 23.2849C50.1798 22.0335 49.0154 21.2871 47.5341 21.2871C47.2061 21.2871 46.8672 21.3255 46.5283 21.3969C45.681 21.5835 44.8775 21.8853 44.2051 22.1488C44.1559 22.1707 44.1013 22.1323 44.1067 22.0774C44.1778 20.4035 44.2598 18.1533 44.0739 16.0183C43.9099 14.0864 43.5109 12.4564 42.8659 11.0349C42.2154 9.60795 41.3681 8.55419 40.7067 7.79131C40.0781 7.06685 38.9684 5.99663 37.2957 5.03617C34.9452 3.68604 32.2668 3 29.3368 3C26.4124 3 23.7394 3.68604 21.3834 5.03617C19.6123 6.05151 18.4808 7.19857 17.967 7.79131C17.3055 8.55419 16.4583 9.60795 15.8078 11.0349C15.1573 12.4564 14.7637 14.0809 14.5997 16.0183C14.4139 18.1643 14.4904 20.2334 14.5669 22.0774C14.5669 22.1323 14.5177 22.1707 14.4631 22.1488C13.7907 21.8853 12.9872 21.5835 12.1399 21.3969C11.8065 21.3255 11.4676 21.2871 11.1341 21.2871C9.65821 21.2871 8.49389 22.0335 8.01833 23.2849C7.66849 24.2124 7.72315 25.1564 8.17138 26.0126C8.52123 26.6766 9.10612 27.2913 9.96432 27.8951C10.2267 28.0817 10.6859 28.378 11.2161 28.7238C11.8119 29.1135 12.7795 29.7446 13.4026 30.1782C13.4791 30.2331 13.7415 30.4307 13.8235 30.6392C13.911 30.8588 13.9274 31.0234 13.8126 31.4625C13.6213 32.0991 13.1894 33.2517 12.282 34.6183C11.5277 35.7653 10.5875 36.8355 9.48876 37.8125C8.12219 39.0254 6.4987 40.0956 4.6675 40.9847C4.58004 41.0286 4.47618 41.078 4.36685 41.1439C4.36685 41.1439 3.27359 41.7037 3.06588 42.4282C2.75976 43.4984 3.57424 44.5027 4.39965 45.0406C5.75529 45.9187 7.4061 46.3907 8.3627 46.6487C8.63055 46.72 8.87107 46.7859 9.08972 46.8517C9.22638 46.8957 9.57075 47.0274 9.71834 47.2195C9.90419 47.461 9.92606 47.7573 9.99166 48.0921C10.0955 48.6574 10.3306 49.3544 11.0248 49.8374C11.7901 50.3643 12.7576 50.4027 13.9875 50.4521C15.2721 50.5015 16.8682 50.5619 18.6994 51.1711C19.5467 51.451 20.3175 51.9284 21.203 52.4773C23.0615 53.6243 25.3738 55.0513 29.3204 55.0513C33.2726 55.0513 35.6012 53.6189 37.4707 52.4663C38.3562 51.923 39.116 51.451 39.9469 51.1765C41.7781 50.5673 43.3742 50.507 44.6588 50.4576C45.8887 50.4082 46.8563 50.3753 47.6215 49.8429C48.365 49.327 48.5781 48.5586 48.6765 47.9823C48.7312 47.6969 48.764 47.439 48.928 47.2304C49.0701 47.0493 49.3872 46.9231 49.5347 46.8737C49.7589 46.8024 50.0103 46.7365 50.2891 46.6597C51.2457 46.4017 52.4483 46.0998 53.9078 45.2711C55.6679 44.2667 55.7882 43.0374 55.6023 42.4282V42.4282Z" stroke="black" stroke-width="5"/>
</svg>
