<svg width="18" height="17" viewBox="0 0 18 17" fill="none" xmlns="http://www.w3.org/2000/svg">
<path d="M7.43333 3C5.35833 3 3.55 3.19167 1.83333 3.73333C1.37917 3.825 1 4.16667 1 4.8C1 5.43333 1.46667 5.99167 2.1 5.9C2.37083 5.9 2.55417 5.8 2.73333 5.8C4.17917 5.4375 5.80833 5.26667 7.43333 5.26667C10.5917 5.26667 13.8333 5.97083 16 7.23333C16.2708 7.325 16.3625 7.43333 16.6333 7.43333C17.2667 7.43333 17.7083 6.96667 17.8 6.33333C17.8 5.79167 17.5292 5.44583 17.1667 5.26667C14.4583 3.73333 10.8625 3 7.43333 3ZM7.13333 6.96667C5.2375 6.96667 3.8875 7.2375 2.53333 7.6C2.08333 7.77917 1.83333 8.05833 1.83333 8.6C1.83333 9.05 2.19167 9.5 2.73333 9.5C2.91667 9.5 2.99583 9.49167 3.26667 9.4C4.25833 9.12917 5.62083 8.96667 7.06667 8.96667C10.0458 8.96667 12.6375 9.69167 14.5333 10.8667C14.7125 10.9583 14.8958 11.0333 15.1667 11.0333C15.7083 11.0333 16.0667 10.575 16.0667 10.0333C16.0667 9.67083 15.8958 9.3125 15.5333 9.13333C13.1875 7.6875 10.2042 6.96667 7.13333 6.96667ZM7.43333 10.8667C5.9 10.8667 4.44583 11.0375 3 11.4C2.6375 11.4917 2.36667 11.75 2.36667 12.2C2.36667 12.5625 2.65 12.9333 3.1 12.9333C3.19167 12.9333 3.45417 12.8333 3.63333 12.8333C4.80833 12.5625 6.07083 12.4 7.33333 12.4C9.5875 12.4 11.65 12.9417 13.3667 13.9333C13.55 14.025 13.7542 14.1 13.9333 14.1C14.2958 14.1 14.6417 13.8292 14.7333 13.4667C14.7333 13.0125 14.5375 12.8458 14.2667 12.6667C12.2792 11.4917 9.95833 10.8667 7.43333 10.8667Z" fill="white"/>
</svg>
