<svg width="19" height="19" viewBox="0 0 19 19" fill="none" xmlns="http://www.w3.org/2000/svg">
<mask id="path-1-outside-1_192_58" maskUnits="userSpaceOnUse" x="0" y="0" width="19" height="19" fill="black">
<rect fill="white" width="19" height="19"/>
<path d="M9.5 1C7.81886 1 6.17547 1.49852 4.77766 2.43251C3.37984 3.3665 2.29037 4.69402 1.64703 6.24719C1.00368 7.80036 0.835355 9.50943 1.16333 11.1583C1.4913 12.8071 2.30085 14.3217 3.4896 15.5104C4.67834 16.6992 6.1929 17.5087 7.84173 17.8367C9.49057 18.1646 11.1996 17.9963 12.7528 17.353C14.306 16.7096 15.6335 15.6202 16.5675 14.2223C17.5015 12.8245 18 11.1811 18 9.5C17.9973 7.24649 17.1009 5.08605 15.5074 3.49257C13.914 1.8991 11.7535 1.0027 9.5 1ZM17.66 9.5C17.66 9.77934 17.6459 10.0585 17.6175 10.3364L16.1742 10.1664C16.1946 9.9505 16.2065 9.7295 16.2065 9.5085C16.2065 9.2875 16.1963 9.092 16.1759 8.8863L17.6192 8.7163C17.66 8.9679 17.66 9.2314 17.66 9.5ZM1.34 9.5C1.33985 9.22522 1.35347 8.95061 1.3808 8.6772L2.8241 8.8472C2.8037 9.0597 2.7918 9.2756 2.7918 9.4932C2.7918 9.7108 2.8037 9.9267 2.8241 10.1392L1.3808 10.3092C1.3536 10.0463 1.34 9.77653 1.34 9.5ZM15.841 7.3019L17.201 6.7919C17.382 7.30576 17.5108 7.83658 17.5852 8.3763L16.1419 8.5463C16.0818 8.12279 15.9811 7.70606 15.841 7.3019ZM15.8801 9.5C15.8799 9.91667 15.8389 10.3323 15.7577 10.741L14.328 10.4112C14.4472 9.797 14.4472 9.1656 14.328 8.5514L15.7594 8.2284C15.842 8.64717 15.8825 9.07316 15.8801 9.5ZM9.5 14.0798C8.5942 14.0798 7.70875 13.8112 6.9556 13.308C6.20246 12.8047 5.61545 12.0895 5.26882 11.2526C4.92219 10.4158 4.83149 9.49492 5.0082 8.60652C5.18492 7.71813 5.6211 6.90209 6.26159 6.26159C6.90209 5.62109 7.71813 5.18491 8.60653 5.0082C9.49492 4.83149 10.4158 4.92218 11.2526 5.26882C12.0895 5.61545 12.8047 6.20245 13.308 6.9556C13.8112 7.70874 14.0798 8.5942 14.0798 9.5C14.0771 10.7138 13.5937 11.8771 12.7354 12.7354C11.8771 13.5937 10.7138 14.0771 9.5 14.0798ZM9.6547 15.875V14.4079C10.2845 14.3883 10.9045 14.2468 11.4805 13.9914L12.1146 15.314C11.3407 15.6646 10.5041 15.856 9.6547 15.8767V15.875ZM6.8633 15.3072L7.5008 13.9863C8.07738 14.2445 8.69861 14.3883 9.33 14.4096V15.875C8.47795 15.8536 7.63898 15.6605 6.8633 15.3072ZM3.1199 9.5C3.1195 9.066 3.16336 8.6331 3.2508 8.208L4.6805 8.5361C4.55749 9.14955 4.55345 9.78092 4.6686 10.3959L3.2372 10.7206C3.15903 10.3184 3.11974 9.90969 3.1199 9.5ZM9.33 3.125V4.5921C8.70941 4.6123 8.09837 4.75078 7.5297 5.0001L6.8939 3.6792C7.6611 3.33461 8.48923 3.14622 9.33 3.125ZM12.1231 3.686L11.4822 5.0052C10.9103 4.75206 10.2951 4.61124 9.67 4.5904V3.125C10.517 3.1461 11.3511 3.33686 12.1231 3.686ZM15.7254 6.9908C15.5649 6.59424 15.3668 6.21397 15.1338 5.8552L16.3238 5.0324C16.6232 5.48817 16.876 5.97283 17.0786 6.4791L15.7254 6.9908ZM15.6795 7.9054L14.2464 8.2284C14.085 7.62667 13.8104 7.06123 13.4372 6.5624L14.5864 5.6529C15.0958 6.32402 15.4668 7.08968 15.6778 7.9054H15.6795ZM13.2264 6.3023C12.8215 5.83067 12.3312 5.43964 11.7814 5.1497L12.4223 3.8305C13.1692 4.21715 13.8329 4.74682 14.3756 5.3894L13.2264 6.3023ZM12.7997 3.6571L13.4797 2.3719C13.9557 2.63884 14.4039 2.95263 14.8176 3.3086L13.8503 4.4C13.5246 4.11945 13.1728 3.87068 12.7997 3.6571ZM12.5056 3.5007C12.1247 3.30825 11.7262 3.15284 11.3156 3.0366L11.6675 1.6256C12.1961 1.77002 12.7087 1.96766 13.1975 2.2155L12.5056 3.5007ZM10.9841 2.955C10.5589 2.85625 10.125 2.79932 9.6887 2.785V1.34C10.2433 1.35176 10.7953 1.42011 11.336 1.544L10.9841 2.955ZM9.3555 2.785C8.92556 2.79375 8.49745 2.84385 8.0771 2.9346L7.7371 1.5236C8.26965 1.40847 8.81239 1.34696 9.3572 1.34L9.3555 2.785ZM7.7524 3.0128C7.33634 3.12473 6.93212 3.27674 6.5454 3.4667L5.8722 2.19C6.36135 1.94566 6.87396 1.75143 7.4022 1.6103L7.7524 3.0128ZM6.2513 3.6214C5.87459 3.83055 5.51879 4.07533 5.1888 4.3524L4.23 3.2712C4.64767 2.91633 5.09986 2.60424 5.5798 2.3396L6.2513 3.6214ZM6.5913 3.8152L7.2271 5.1361C6.67647 5.42416 6.18509 5.81346 5.7787 6.2836L4.6329 5.369C5.18021 4.72947 5.84794 4.20383 6.5981 3.822L6.5913 3.8152ZM4.4289 5.6342L5.5747 6.5488C5.19948 7.04608 4.92253 7.61036 4.7587 8.2114L3.3273 7.8833C3.5418 7.06799 3.91626 6.30347 4.4289 5.6342ZM3.2882 6.95L1.9282 6.44C2.13604 5.9319 2.39461 5.44607 2.7 4.9899L3.89 5.8161C3.65358 6.17394 3.45206 6.55365 3.2882 6.95ZM3.1692 7.2611C3.02515 7.66766 2.92096 8.08727 2.8581 8.514L1.4165 8.344C1.49358 7.80047 1.62572 7.26619 1.8109 6.7494L3.1692 7.2611ZM2.8581 10.4758C2.92095 10.9025 3.02514 11.3221 3.1692 11.7287L1.8092 12.2387C1.62471 11.7224 1.49314 11.1887 1.4165 10.6458L2.8581 10.4758ZM3.2865 12.0415C3.4505 12.4403 3.65261 12.8223 3.89 13.1822L2.7 14.0067C2.39482 13.5516 2.13624 13.0669 1.9282 12.56L3.2865 12.0415ZM3.3086 11.0453L4.74 10.7206C4.89647 11.3283 5.16831 11.9002 5.5407 12.4053L4.4 13.3182C3.88872 12.6409 3.51821 11.8681 3.3103 11.0453H3.3086ZM5.7447 12.6671C6.15014 13.1475 6.64345 13.5462 7.1982 13.8418L6.5624 15.161C5.80986 14.7689 5.1425 14.2316 4.5989 13.58L5.7447 12.6671ZM6.2445 15.3701L5.5645 16.657C5.08987 16.3915 4.64284 16.0794 4.23 15.7254L5.1939 14.6391C5.5212 14.9157 5.87413 15.1605 6.2479 15.3701H6.2445ZM6.5403 15.5248C6.92593 15.7146 7.329 15.8666 7.7439 15.9787L7.3937 17.3897C6.86546 17.2486 6.35285 17.0543 5.8637 16.81L6.5403 15.5248ZM8.0703 16.0586C8.49004 16.1498 8.91757 16.2005 9.347 16.2099V17.66C8.80071 17.6499 8.25682 17.585 7.7235 17.4662L8.0703 16.0586ZM9.6802 16.2082C10.1092 16.197 10.5362 16.1446 10.9552 16.0518L11.2952 17.4628C10.7614 17.5828 10.217 17.6489 9.67 17.66L9.6802 16.2082ZM11.2782 15.9719C11.6915 15.8584 12.0928 15.7052 12.4767 15.5146L13.1567 16.8015C12.6677 17.047 12.1551 17.2424 11.6267 17.3846L11.2782 15.9719ZM12.7708 15.3582C13.1445 15.1491 13.4974 14.9049 13.8248 14.6289L14.7853 15.7186C14.3704 16.0693 13.9217 16.378 13.4457 16.64L12.7708 15.3582ZM12.4155 15.1695L11.7814 13.8469C12.3374 13.5539 12.8325 13.1575 13.24 12.679L14.3841 13.5953C13.839 14.2454 13.1705 14.781 12.4172 15.1712L12.4155 15.1695ZM14.6 13.3352L13.4559 12.4189C13.8291 11.9151 14.1021 11.3443 14.26 10.7376L15.6897 11.0674C15.4812 11.8884 15.1107 12.6594 14.6 13.3352ZM15.7118 12.05L17.0718 12.56C16.8636 13.0657 16.605 13.5493 16.3 14.0033L15.11 13.1754C15.3459 12.8203 15.5475 12.4434 15.7118 12.05ZM15.8308 11.7389C15.9737 11.3356 16.0773 10.9194 16.1402 10.4962L17.5818 10.6662C17.5045 11.2056 17.3729 11.7359 17.1891 12.2489L15.8308 11.7389ZM16.1419 4.7689L14.9519 5.5917C14.6998 5.24416 14.4152 4.9214 14.1019 4.6278L15.0675 3.5432C15.4647 3.91146 15.8246 4.31803 16.1419 4.757V4.7689ZM3.9767 3.4905L4.9406 4.5785C4.62734 4.87211 4.34272 5.19486 4.0906 5.5424L2.9006 4.7162C3.21785 4.27302 3.57832 3.86244 3.9767 3.4905ZM2.8836 14.2804L4.0736 13.4559C4.32581 13.8028 4.61042 14.125 4.9236 14.4181L3.958 15.5044C3.5603 15.1329 3.2004 14.7229 2.8836 14.2804ZM15.0352 15.4976L14.073 14.4079C14.386 14.1159 14.6706 13.7949 14.923 13.4491L16.113 14.277C15.7955 14.7184 15.435 15.1273 15.0369 15.4976H15.0352Z"/>
</mask>
<path d="M9.5 1C7.81886 1 6.17547 1.49852 4.77766 2.43251C3.37984 3.3665 2.29037 4.69402 1.64703 6.24719C1.00368 7.80036 0.835355 9.50943 1.16333 11.1583C1.4913 12.8071 2.30085 14.3217 3.4896 15.5104C4.67834 16.6992 6.1929 17.5087 7.84173 17.8367C9.49057 18.1646 11.1996 17.9963 12.7528 17.353C14.306 16.7096 15.6335 15.6202 16.5675 14.2223C17.5015 12.8245 18 11.1811 18 9.5C17.9973 7.24649 17.1009 5.08605 15.5074 3.49257C13.914 1.8991 11.7535 1.0027 9.5 1ZM17.66 9.5C17.66 9.77934 17.6459 10.0585 17.6175 10.3364L16.1742 10.1664C16.1946 9.9505 16.2065 9.7295 16.2065 9.5085C16.2065 9.2875 16.1963 9.092 16.1759 8.8863L17.6192 8.7163C17.66 8.9679 17.66 9.2314 17.66 9.5ZM1.34 9.5C1.33985 9.22522 1.35347 8.95061 1.3808 8.6772L2.8241 8.8472C2.8037 9.0597 2.7918 9.2756 2.7918 9.4932C2.7918 9.7108 2.8037 9.9267 2.8241 10.1392L1.3808 10.3092C1.3536 10.0463 1.34 9.77653 1.34 9.5ZM15.841 7.3019L17.201 6.7919C17.382 7.30576 17.5108 7.83658 17.5852 8.3763L16.1419 8.5463C16.0818 8.12279 15.9811 7.70606 15.841 7.3019ZM15.8801 9.5C15.8799 9.91667 15.8389 10.3323 15.7577 10.741L14.328 10.4112C14.4472 9.797 14.4472 9.1656 14.328 8.5514L15.7594 8.2284C15.842 8.64717 15.8825 9.07316 15.8801 9.5ZM9.5 14.0798C8.5942 14.0798 7.70875 13.8112 6.9556 13.308C6.20246 12.8047 5.61545 12.0895 5.26882 11.2526C4.92219 10.4158 4.83149 9.49492 5.0082 8.60652C5.18492 7.71813 5.6211 6.90209 6.26159 6.26159C6.90209 5.62109 7.71813 5.18491 8.60653 5.0082C9.49492 4.83149 10.4158 4.92218 11.2526 5.26882C12.0895 5.61545 12.8047 6.20245 13.308 6.9556C13.8112 7.70874 14.0798 8.5942 14.0798 9.5C14.0771 10.7138 13.5937 11.8771 12.7354 12.7354C11.8771 13.5937 10.7138 14.0771 9.5 14.0798ZM9.6547 15.875V14.4079C10.2845 14.3883 10.9045 14.2468 11.4805 13.9914L12.1146 15.314C11.3407 15.6646 10.5041 15.856 9.6547 15.8767V15.875ZM6.8633 15.3072L7.5008 13.9863C8.07738 14.2445 8.69861 14.3883 9.33 14.4096V15.875C8.47795 15.8536 7.63898 15.6605 6.8633 15.3072ZM3.1199 9.5C3.1195 9.066 3.16336 8.6331 3.2508 8.208L4.6805 8.5361C4.55749 9.14955 4.55345 9.78092 4.6686 10.3959L3.2372 10.7206C3.15903 10.3184 3.11974 9.90969 3.1199 9.5ZM9.33 3.125V4.5921C8.70941 4.6123 8.09837 4.75078 7.5297 5.0001L6.8939 3.6792C7.6611 3.33461 8.48923 3.14622 9.33 3.125ZM12.1231 3.686L11.4822 5.0052C10.9103 4.75206 10.2951 4.61124 9.67 4.5904V3.125C10.517 3.1461 11.3511 3.33686 12.1231 3.686ZM15.7254 6.9908C15.5649 6.59424 15.3668 6.21397 15.1338 5.8552L16.3238 5.0324C16.6232 5.48817 16.876 5.97283 17.0786 6.4791L15.7254 6.9908ZM15.6795 7.9054L14.2464 8.2284C14.085 7.62667 13.8104 7.06123 13.4372 6.5624L14.5864 5.6529C15.0958 6.32402 15.4668 7.08968 15.6778 7.9054H15.6795ZM13.2264 6.3023C12.8215 5.83067 12.3312 5.43964 11.7814 5.1497L12.4223 3.8305C13.1692 4.21715 13.8329 4.74682 14.3756 5.3894L13.2264 6.3023ZM12.7997 3.6571L13.4797 2.3719C13.9557 2.63884 14.4039 2.95263 14.8176 3.3086L13.8503 4.4C13.5246 4.11945 13.1728 3.87068 12.7997 3.6571ZM12.5056 3.5007C12.1247 3.30825 11.7262 3.15284 11.3156 3.0366L11.6675 1.6256C12.1961 1.77002 12.7087 1.96766 13.1975 2.2155L12.5056 3.5007ZM10.9841 2.955C10.5589 2.85625 10.125 2.79932 9.6887 2.785V1.34C10.2433 1.35176 10.7953 1.42011 11.336 1.544L10.9841 2.955ZM9.3555 2.785C8.92556 2.79375 8.49745 2.84385 8.0771 2.9346L7.7371 1.5236C8.26965 1.40847 8.81239 1.34696 9.3572 1.34L9.3555 2.785ZM7.7524 3.0128C7.33634 3.12473 6.93212 3.27674 6.5454 3.4667L5.8722 2.19C6.36135 1.94566 6.87396 1.75143 7.4022 1.6103L7.7524 3.0128ZM6.2513 3.6214C5.87459 3.83055 5.51879 4.07533 5.1888 4.3524L4.23 3.2712C4.64767 2.91633 5.09986 2.60424 5.5798 2.3396L6.2513 3.6214ZM6.5913 3.8152L7.2271 5.1361C6.67647 5.42416 6.18509 5.81346 5.7787 6.2836L4.6329 5.369C5.18021 4.72947 5.84794 4.20383 6.5981 3.822L6.5913 3.8152ZM4.4289 5.6342L5.5747 6.5488C5.19948 7.04608 4.92253 7.61036 4.7587 8.2114L3.3273 7.8833C3.5418 7.06799 3.91626 6.30347 4.4289 5.6342ZM3.2882 6.95L1.9282 6.44C2.13604 5.9319 2.39461 5.44607 2.7 4.9899L3.89 5.8161C3.65358 6.17394 3.45206 6.55365 3.2882 6.95ZM3.1692 7.2611C3.02515 7.66766 2.92096 8.08727 2.8581 8.514L1.4165 8.344C1.49358 7.80047 1.62572 7.26619 1.8109 6.7494L3.1692 7.2611ZM2.8581 10.4758C2.92095 10.9025 3.02514 11.3221 3.1692 11.7287L1.8092 12.2387C1.62471 11.7224 1.49314 11.1887 1.4165 10.6458L2.8581 10.4758ZM3.2865 12.0415C3.4505 12.4403 3.65261 12.8223 3.89 13.1822L2.7 14.0067C2.39482 13.5516 2.13624 13.0669 1.9282 12.56L3.2865 12.0415ZM3.3086 11.0453L4.74 10.7206C4.89647 11.3283 5.16831 11.9002 5.5407 12.4053L4.4 13.3182C3.88872 12.6409 3.51821 11.8681 3.3103 11.0453H3.3086ZM5.7447 12.6671C6.15014 13.1475 6.64345 13.5462 7.1982 13.8418L6.5624 15.161C5.80986 14.7689 5.1425 14.2316 4.5989 13.58L5.7447 12.6671ZM6.2445 15.3701L5.5645 16.657C5.08987 16.3915 4.64284 16.0794 4.23 15.7254L5.1939 14.6391C5.5212 14.9157 5.87413 15.1605 6.2479 15.3701H6.2445ZM6.5403 15.5248C6.92593 15.7146 7.329 15.8666 7.7439 15.9787L7.3937 17.3897C6.86546 17.2486 6.35285 17.0543 5.8637 16.81L6.5403 15.5248ZM8.0703 16.0586C8.49004 16.1498 8.91757 16.2005 9.347 16.2099V17.66C8.80071 17.6499 8.25682 17.585 7.7235 17.4662L8.0703 16.0586ZM9.6802 16.2082C10.1092 16.197 10.5362 16.1446 10.9552 16.0518L11.2952 17.4628C10.7614 17.5828 10.217 17.6489 9.67 17.66L9.6802 16.2082ZM11.2782 15.9719C11.6915 15.8584 12.0928 15.7052 12.4767 15.5146L13.1567 16.8015C12.6677 17.047 12.1551 17.2424 11.6267 17.3846L11.2782 15.9719ZM12.7708 15.3582C13.1445 15.1491 13.4974 14.9049 13.8248 14.6289L14.7853 15.7186C14.3704 16.0693 13.9217 16.378 13.4457 16.64L12.7708 15.3582ZM12.4155 15.1695L11.7814 13.8469C12.3374 13.5539 12.8325 13.1575 13.24 12.679L14.3841 13.5953C13.839 14.2454 13.1705 14.781 12.4172 15.1712L12.4155 15.1695ZM14.6 13.3352L13.4559 12.4189C13.8291 11.9151 14.1021 11.3443 14.26 10.7376L15.6897 11.0674C15.4812 11.8884 15.1107 12.6594 14.6 13.3352ZM15.7118 12.05L17.0718 12.56C16.8636 13.0657 16.605 13.5493 16.3 14.0033L15.11 13.1754C15.3459 12.8203 15.5475 12.4434 15.7118 12.05ZM15.8308 11.7389C15.9737 11.3356 16.0773 10.9194 16.1402 10.4962L17.5818 10.6662C17.5045 11.2056 17.3729 11.7359 17.1891 12.2489L15.8308 11.7389ZM16.1419 4.7689L14.9519 5.5917C14.6998 5.24416 14.4152 4.9214 14.1019 4.6278L15.0675 3.5432C15.4647 3.91146 15.8246 4.31803 16.1419 4.757V4.7689ZM3.9767 3.4905L4.9406 4.5785C4.62734 4.87211 4.34272 5.19486 4.0906 5.5424L2.9006 4.7162C3.21785 4.27302 3.57832 3.86244 3.9767 3.4905ZM2.8836 14.2804L4.0736 13.4559C4.32581 13.8028 4.61042 14.125 4.9236 14.4181L3.958 15.5044C3.5603 15.1329 3.2004 14.7229 2.8836 14.2804ZM15.0352 15.4976L14.073 14.4079C14.386 14.1159 14.6706 13.7949 14.923 13.4491L16.113 14.277C15.7955 14.7184 15.435 15.1273 15.0369 15.4976H15.0352Z" fill="black"/>
<path d="M9.5 1C7.81886 1 6.17547 1.49852 4.77766 2.43251C3.37984 3.3665 2.29037 4.69402 1.64703 6.24719C1.00368 7.80036 0.835355 9.50943 1.16333 11.1583C1.4913 12.8071 2.30085 14.3217 3.4896 15.5104C4.67834 16.6992 6.1929 17.5087 7.84173 17.8367C9.49057 18.1646 11.1996 17.9963 12.7528 17.353C14.306 16.7096 15.6335 15.6202 16.5675 14.2223C17.5015 12.8245 18 11.1811 18 9.5C17.9973 7.24649 17.1009 5.08605 15.5074 3.49257C13.914 1.8991 11.7535 1.0027 9.5 1ZM17.66 9.5C17.66 9.77934 17.6459 10.0585 17.6175 10.3364L16.1742 10.1664C16.1946 9.9505 16.2065 9.7295 16.2065 9.5085C16.2065 9.2875 16.1963 9.092 16.1759 8.8863L17.6192 8.7163C17.66 8.9679 17.66 9.2314 17.66 9.5ZM1.34 9.5C1.33985 9.22522 1.35347 8.95061 1.3808 8.6772L2.8241 8.8472C2.8037 9.0597 2.7918 9.2756 2.7918 9.4932C2.7918 9.7108 2.8037 9.9267 2.8241 10.1392L1.3808 10.3092C1.3536 10.0463 1.34 9.77653 1.34 9.5ZM15.841 7.3019L17.201 6.7919C17.382 7.30576 17.5108 7.83658 17.5852 8.3763L16.1419 8.5463C16.0818 8.12279 15.9811 7.70606 15.841 7.3019ZM15.8801 9.5C15.8799 9.91667 15.8389 10.3323 15.7577 10.741L14.328 10.4112C14.4472 9.797 14.4472 9.1656 14.328 8.5514L15.7594 8.2284C15.842 8.64717 15.8825 9.07316 15.8801 9.5ZM9.5 14.0798C8.5942 14.0798 7.70875 13.8112 6.9556 13.308C6.20246 12.8047 5.61545 12.0895 5.26882 11.2526C4.92219 10.4158 4.83149 9.49492 5.0082 8.60652C5.18492 7.71813 5.6211 6.90209 6.26159 6.26159C6.90209 5.62109 7.71813 5.18491 8.60653 5.0082C9.49492 4.83149 10.4158 4.92218 11.2526 5.26882C12.0895 5.61545 12.8047 6.20245 13.308 6.9556C13.8112 7.70874 14.0798 8.5942 14.0798 9.5C14.0771 10.7138 13.5937 11.8771 12.7354 12.7354C11.8771 13.5937 10.7138 14.0771 9.5 14.0798ZM9.6547 15.875V14.4079C10.2845 14.3883 10.9045 14.2468 11.4805 13.9914L12.1146 15.314C11.3407 15.6646 10.5041 15.856 9.6547 15.8767V15.875ZM6.8633 15.3072L7.5008 13.9863C8.07738 14.2445 8.69861 14.3883 9.33 14.4096V15.875C8.47795 15.8536 7.63898 15.6605 6.8633 15.3072ZM3.1199 9.5C3.1195 9.066 3.16336 8.6331 3.2508 8.208L4.6805 8.5361C4.55749 9.14955 4.55345 9.78092 4.6686 10.3959L3.2372 10.7206C3.15903 10.3184 3.11974 9.90969 3.1199 9.5ZM9.33 3.125V4.5921C8.70941 4.6123 8.09837 4.75078 7.5297 5.0001L6.8939 3.6792C7.6611 3.33461 8.48923 3.14622 9.33 3.125ZM12.1231 3.686L11.4822 5.0052C10.9103 4.75206 10.2951 4.61124 9.67 4.5904V3.125C10.517 3.1461 11.3511 3.33686 12.1231 3.686ZM15.7254 6.9908C15.5649 6.59424 15.3668 6.21397 15.1338 5.8552L16.3238 5.0324C16.6232 5.48817 16.876 5.97283 17.0786 6.4791L15.7254 6.9908ZM15.6795 7.9054L14.2464 8.2284C14.085 7.62667 13.8104 7.06123 13.4372 6.5624L14.5864 5.6529C15.0958 6.32402 15.4668 7.08968 15.6778 7.9054H15.6795ZM13.2264 6.3023C12.8215 5.83067 12.3312 5.43964 11.7814 5.1497L12.4223 3.8305C13.1692 4.21715 13.8329 4.74682 14.3756 5.3894L13.2264 6.3023ZM12.7997 3.6571L13.4797 2.3719C13.9557 2.63884 14.4039 2.95263 14.8176 3.3086L13.8503 4.4C13.5246 4.11945 13.1728 3.87068 12.7997 3.6571ZM12.5056 3.5007C12.1247 3.30825 11.7262 3.15284 11.3156 3.0366L11.6675 1.6256C12.1961 1.77002 12.7087 1.96766 13.1975 2.2155L12.5056 3.5007ZM10.9841 2.955C10.5589 2.85625 10.125 2.79932 9.6887 2.785V1.34C10.2433 1.35176 10.7953 1.42011 11.336 1.544L10.9841 2.955ZM9.3555 2.785C8.92556 2.79375 8.49745 2.84385 8.0771 2.9346L7.7371 1.5236C8.26965 1.40847 8.81239 1.34696 9.3572 1.34L9.3555 2.785ZM7.7524 3.0128C7.33634 3.12473 6.93212 3.27674 6.5454 3.4667L5.8722 2.19C6.36135 1.94566 6.87396 1.75143 7.4022 1.6103L7.7524 3.0128ZM6.2513 3.6214C5.87459 3.83055 5.51879 4.07533 5.1888 4.3524L4.23 3.2712C4.64767 2.91633 5.09986 2.60424 5.5798 2.3396L6.2513 3.6214ZM6.5913 3.8152L7.2271 5.1361C6.67647 5.42416 6.18509 5.81346 5.7787 6.2836L4.6329 5.369C5.18021 4.72947 5.84794 4.20383 6.5981 3.822L6.5913 3.8152ZM4.4289 5.6342L5.5747 6.5488C5.19948 7.04608 4.92253 7.61036 4.7587 8.2114L3.3273 7.8833C3.5418 7.06799 3.91626 6.30347 4.4289 5.6342ZM3.2882 6.95L1.9282 6.44C2.13604 5.9319 2.39461 5.44607 2.7 4.9899L3.89 5.8161C3.65358 6.17394 3.45206 6.55365 3.2882 6.95ZM3.1692 7.2611C3.02515 7.66766 2.92096 8.08727 2.8581 8.514L1.4165 8.344C1.49358 7.80047 1.62572 7.26619 1.8109 6.7494L3.1692 7.2611ZM2.8581 10.4758C2.92095 10.9025 3.02514 11.3221 3.1692 11.7287L1.8092 12.2387C1.62471 11.7224 1.49314 11.1887 1.4165 10.6458L2.8581 10.4758ZM3.2865 12.0415C3.4505 12.4403 3.65261 12.8223 3.89 13.1822L2.7 14.0067C2.39482 13.5516 2.13624 13.0669 1.9282 12.56L3.2865 12.0415ZM3.3086 11.0453L4.74 10.7206C4.89647 11.3283 5.16831 11.9002 5.5407 12.4053L4.4 13.3182C3.88872 12.6409 3.51821 11.8681 3.3103 11.0453H3.3086ZM5.7447 12.6671C6.15014 13.1475 6.64345 13.5462 7.1982 13.8418L6.5624 15.161C5.80986 14.7689 5.1425 14.2316 4.5989 13.58L5.7447 12.6671ZM6.2445 15.3701L5.5645 16.657C5.08987 16.3915 4.64284 16.0794 4.23 15.7254L5.1939 14.6391C5.5212 14.9157 5.87413 15.1605 6.2479 15.3701H6.2445ZM6.5403 15.5248C6.92593 15.7146 7.329 15.8666 7.7439 15.9787L7.3937 17.3897C6.86546 17.2486 6.35285 17.0543 5.8637 16.81L6.5403 15.5248ZM8.0703 16.0586C8.49004 16.1498 8.91757 16.2005 9.347 16.2099V17.66C8.80071 17.6499 8.25682 17.585 7.7235 17.4662L8.0703 16.0586ZM9.6802 16.2082C10.1092 16.197 10.5362 16.1446 10.9552 16.0518L11.2952 17.4628C10.7614 17.5828 10.217 17.6489 9.67 17.66L9.6802 16.2082ZM11.2782 15.9719C11.6915 15.8584 12.0928 15.7052 12.4767 15.5146L13.1567 16.8015C12.6677 17.047 12.1551 17.2424 11.6267 17.3846L11.2782 15.9719ZM12.7708 15.3582C13.1445 15.1491 13.4974 14.9049 13.8248 14.6289L14.7853 15.7186C14.3704 16.0693 13.9217 16.378 13.4457 16.64L12.7708 15.3582ZM12.4155 15.1695L11.7814 13.8469C12.3374 13.5539 12.8325 13.1575 13.24 12.679L14.3841 13.5953C13.839 14.2454 13.1705 14.781 12.4172 15.1712L12.4155 15.1695ZM14.6 13.3352L13.4559 12.4189C13.8291 11.9151 14.1021 11.3443 14.26 10.7376L15.6897 11.0674C15.4812 11.8884 15.1107 12.6594 14.6 13.3352ZM15.7118 12.05L17.0718 12.56C16.8636 13.0657 16.605 13.5493 16.3 14.0033L15.11 13.1754C15.3459 12.8203 15.5475 12.4434 15.7118 12.05ZM15.8308 11.7389C15.9737 11.3356 16.0773 10.9194 16.1402 10.4962L17.5818 10.6662C17.5045 11.2056 17.3729 11.7359 17.1891 12.2489L15.8308 11.7389ZM16.1419 4.7689L14.9519 5.5917C14.6998 5.24416 14.4152 4.9214 14.1019 4.6278L15.0675 3.5432C15.4647 3.91146 15.8246 4.31803 16.1419 4.757V4.7689ZM3.9767 3.4905L4.9406 4.5785C4.62734 4.87211 4.34272 5.19486 4.0906 5.5424L2.9006 4.7162C3.21785 4.27302 3.57832 3.86244 3.9767 3.4905ZM2.8836 14.2804L4.0736 13.4559C4.32581 13.8028 4.61042 14.125 4.9236 14.4181L3.958 15.5044C3.5603 15.1329 3.2004 14.7229 2.8836 14.2804ZM15.0352 15.4976L14.073 14.4079C14.386 14.1159 14.6706 13.7949 14.923 13.4491L16.113 14.277C15.7955 14.7184 15.435 15.1273 15.0369 15.4976H15.0352Z" stroke="black" stroke-width="0.4" mask="url(#path-1-outside-1_192_58)"/>
</svg>
